<svg width="128" height="128" xmlns="http://www.w3.org/2000/svg">

 <g>
  <title>background</title>
  <rect fill="none" id="canvas_background" height="402" width="582" y="-1" x="-1"/>
 </g>
 <g>
  <title>Layer 1</title>
  <circle id="svg_2" fill="#1b93a0" r="63" cy="64" cx="63.873016"/>
  <path id="svg_3" fill="#157984" d="m127,64c0,-3.13 -0.231,-6.205 -0.673,-9.213l-21.835,-21.836l-80.667,62.374l31.007,31.008c2.993,0.437 6.053,0.667 9.168,0.667c34.794,0 63,-28.207 63,-63z"/>
  <path id="svg_4" fill="#004e8e" d="m100.002,31.123l-72.003,0c-3.544,0 -6.427,2.883 -6.427,6.428l0,52.898c0,3.545 2.883,6.428 6.427,6.428l72.002,0c3.545,0 6.428,-2.884 6.428,-6.428l0,-52.898c0.001,-3.545 -2.883,-6.428 -6.427,-6.428z"/>
  <path id="svg_6" fill="#FFFFFF" d="m64.677016,34.337l18.805,0l0,59.326l-18.805,0l0,-59.326zm-1.606,59.326l-18.806,0l0,-59.326l18.805,0l0.001,59.326l0,0zm-38.413,-3.214l0,-52.898c0,-1.772 1.441,-3.214 3.214,-3.214l14.787,0l0,59.326l-14.787,0c-1.772,0 -3.214,-1.442 -3.214,-3.214zm78.431,0c0,1.771 -1.442,3.214 -3.215,3.214l-14.786,0l0,-59.326l14.787,0c1.771,0 3.214,1.441 3.214,3.214l0,52.898l0,0z"/>
  <rect id="svg_7" fill="#EF9EB0" y="37.951" x="27.84" width="11.089" height="7.138"/>
  <rect id="svg_8" fill="#FCD700" y="48.665" x="27.84" width="11.089" height="7.137"/>
  <rect id="svg_9" fill="#FCD700" y="59.379" x="27.84" width="11.089" height="7.137"/>
  <rect id="svg_10" fill="#FCD700" y="37.951" x="48.319" width="11.089" height="7.138"/>
  <rect id="svg_11" fill="#FCD700" y="48.665" x="48.319" width="11.089" height="7.137"/>
  <rect id="svg_12" fill="#A5D333" y="59.379" x="48.319" width="11.089" height="7.137"/>
  <rect id="svg_13" fill="#A5D333" y="37.951" x="68.798" width="11.089" height="7.138"/>
  <rect id="svg_14" fill="#3EB2E5" y="37.951" x="89.277" width="11.089" height="7.138"/>
  <rect id="svg_15" fill="#A5D333" y="48.665" x="68.798" width="11.089" height="7.137"/>
 </g>
</svg>