<?xml version="1.0" encoding="UTF-8" standalone="no"?>
<svg
   xmlns:dc="http://purl.org/dc/elements/1.1/"
   xmlns:cc="http://creativecommons.org/ns#"
   xmlns:rdf="http://www.w3.org/1999/02/22-rdf-syntax-ns#"
   xmlns:svg="http://www.w3.org/2000/svg"
   xmlns="http://www.w3.org/2000/svg"
   xmlns:sodipodi="http://sodipodi.sourceforge.net/DTD/sodipodi-0.dtd"
   xmlns:inkscape="http://www.inkscape.org/namespaces/inkscape"
   version="1.1"
   id="Capa_1"
   x="0px"
   y="0px"
   viewBox="0 0 18.151 18.151"
   style="enable-background:new 0 0 18.151 18.151;"
   xml:space="preserve"
   sodipodi:docname="add-column.svg"
   inkscape:version="1.0.2 (e86c870879, 2021-01-15)"><metadata
   id="metadata47"><rdf:RDF><cc:Work
       rdf:about=""><dc:format>image/svg+xml</dc:format><dc:type
         rdf:resource="http://purl.org/dc/dcmitype/StillImage" /></cc:Work></rdf:RDF></metadata><defs
   id="defs45" /><sodipodi:namedview
   pagecolor="#ffffff"
   bordercolor="#666666"
   borderopacity="1"
   objecttolerance="10"
   gridtolerance="10"
   guidetolerance="10"
   inkscape:pageopacity="0"
   inkscape:pageshadow="2"
   inkscape:window-width="2560"
   inkscape:window-height="1385"
   id="namedview43"
   showgrid="false"
   inkscape:zoom="39.391771"
   inkscape:cx="9.0754995"
   inkscape:cy="9.0754995"
   inkscape:window-x="0"
   inkscape:window-y="27"
   inkscape:window-maximized="1"
   inkscape:current-layer="Capa_1" />
<g
   id="g10"
   style="fill:#000000">
	<g
   id="g8"
   style="fill:#000000">
		<path
   style="fill:#000000"
   d="M6.237,16.546H3.649V1.604h5.916v5.728c0.474-0.122,0.968-0.194,1.479-0.194    c0.042,0,0.083,0.006,0.125,0.006V0H2.044v18.15h5.934C7.295,17.736,6.704,17.19,6.237,16.546z"
   id="path2" />
		<path
   style="fill:#000000"
   d="M11.169,8.275c-2.723,0-4.938,2.215-4.938,4.938s2.215,4.938,4.938,4.938s4.938-2.215,4.938-4.938    S13.892,8.275,11.169,8.275z M11.169,16.81c-1.983,0-3.598-1.612-3.598-3.598c0-1.983,1.614-3.597,3.598-3.597    s3.597,1.613,3.597,3.597C14.766,15.198,13.153,16.81,11.169,16.81z"
   id="path4" />
		<polygon
   style="fill:#000000"
   points="11.792,11.073 10.502,11.073 10.502,12.578 9.03,12.578 9.03,13.868 10.502,13.868     10.502,15.352 11.792,15.352 11.792,13.868 13.309,13.868 13.309,12.578 11.792,12.578   "
   id="polygon6" />
	</g>
</g>
<g
   id="g12"
   style="fill:#000000">
</g>
<g
   id="g14"
   style="fill:#000000">
</g>
<g
   id="g16"
   style="fill:#000000">
</g>
<g
   id="g18"
   style="fill:#000000">
</g>
<g
   id="g20"
   style="fill:#000000">
</g>
<g
   id="g22"
   style="fill:#000000">
</g>
<g
   id="g24"
   style="fill:#000000">
</g>
<g
   id="g26"
   style="fill:#000000">
</g>
<g
   id="g28"
   style="fill:#000000">
</g>
<g
   id="g30"
   style="fill:#000000">
</g>
<g
   id="g32"
   style="fill:#000000">
</g>
<g
   id="g34"
   style="fill:#000000">
</g>
<g
   id="g36"
   style="fill:#000000">
</g>
<g
   id="g38"
   style="fill:#000000">
</g>
<g
   id="g40"
   style="fill:#000000">
</g>
</svg>
