<?xml version="1.0" encoding="UTF-8" standalone="no"?>
<svg
   xmlns:dc="http://purl.org/dc/elements/1.1/"
   xmlns:cc="http://creativecommons.org/ns#"
   xmlns:rdf="http://www.w3.org/1999/02/22-rdf-syntax-ns#"
   xmlns:svg="http://www.w3.org/2000/svg"
   xmlns="http://www.w3.org/2000/svg"
   xmlns:sodipodi="http://sodipodi.sourceforge.net/DTD/sodipodi-0.dtd"
   xmlns:inkscape="http://www.inkscape.org/namespaces/inkscape"
   version="1.1"
   id="Capa_1"
   x="0px"
   y="0px"
   viewBox="0 0 26 26"
   style="enable-background:new 0 0 26 26;"
   xml:space="preserve"
   sodipodi:docname="delete-column.svg"
   inkscape:version="1.0.2 (e86c870879, 2021-01-15)"><metadata
   id="metadata45"><rdf:RDF><cc:Work
       rdf:about=""><dc:format>image/svg+xml</dc:format><dc:type
         rdf:resource="http://purl.org/dc/dcmitype/StillImage" /></cc:Work></rdf:RDF></metadata><defs
   id="defs43" /><sodipodi:namedview
   pagecolor="#ffffff"
   bordercolor="#666666"
   borderopacity="1"
   objecttolerance="10"
   gridtolerance="10"
   guidetolerance="10"
   inkscape:pageopacity="0"
   inkscape:pageshadow="2"
   inkscape:window-width="2560"
   inkscape:window-height="1385"
   id="namedview41"
   showgrid="false"
   inkscape:zoom="27.5"
   inkscape:cx="13"
   inkscape:cy="13"
   inkscape:window-x="0"
   inkscape:window-y="27"
   inkscape:window-maximized="1"
   inkscape:current-layer="Capa_1" />
<g
   id="g8"
   style="fill:#000000">
	<path
   style="fill:#000000"
   d="M13.594,20.85V24h-10V2h10v3.15c0.633-0.323,1.304-0.565,2-0.727V1c0-0.551-0.448-1-1-1h-12   c-0.55,0-1,0.449-1,1v24c0,0.551,0.449,1,1,1h12c0.552,0,1-0.449,1-1v-3.424C14.898,21.415,14.227,21.173,13.594,20.85z"
   id="path2" />
	<g
   id="g6"
   style="fill:#000000">
		<path
   style="fill:#000000"
   d="M17.594,6.188c-3.762,0-6.813,3.051-6.812,6.813c-0.001,3.761,3.05,6.812,6.812,6.812    s6.813-3.051,6.813-6.813S21.355,6.188,17.594,6.188z M21.226,13.99l-7.267,0.001v-1.982h7.268L21.226,13.99z"
   id="path4" />
	</g>
</g>
<g
   id="g10"
   style="fill:#000000">
</g>
<g
   id="g12"
   style="fill:#000000">
</g>
<g
   id="g14"
   style="fill:#000000">
</g>
<g
   id="g16"
   style="fill:#000000">
</g>
<g
   id="g18"
   style="fill:#000000">
</g>
<g
   id="g20"
   style="fill:#000000">
</g>
<g
   id="g22"
   style="fill:#000000">
</g>
<g
   id="g24"
   style="fill:#000000">
</g>
<g
   id="g26"
   style="fill:#000000">
</g>
<g
   id="g28"
   style="fill:#000000">
</g>
<g
   id="g30"
   style="fill:#000000">
</g>
<g
   id="g32"
   style="fill:#000000">
</g>
<g
   id="g34"
   style="fill:#000000">
</g>
<g
   id="g36"
   style="fill:#000000">
</g>
<g
   id="g38"
   style="fill:#000000">
</g>
</svg>
