<?xml version="1.0" encoding="iso-8859-1"?>
<!-- Generator: Adobe Illustrator 18.0.0, SVG Export Plug-In . SVG Version: 6.00 Build 0)  -->
<!DOCTYPE svg PUBLIC "-//W3C//DTD SVG 1.1//EN" "http://www.w3.org/Graphics/SVG/1.1/DTD/svg11.dtd">
<svg version="1.1" id="Capa_1" xmlns="http://www.w3.org/2000/svg" xmlns:xlink="http://www.w3.org/1999/xlink" x="0px" y="0px"
	 viewBox="0 0 512 512" style="enable-background:new 0 0 512 512;" xml:space="preserve">
<g>
	<path d="M493.254,77.255l-58.508-58.51C422.742,6.742,406.465,0,389.49,0H352v112c0,8.836-7.164,16-16,16H80
		c-8.836,0-16-7.164-16-16V0H32C14.328,0,0,14.326,0,32v448c0,17.673,14.328,32,32,32h448c17.672,0,32-14.327,32-32V122.51
		C512,105.535,505.258,89.257,493.254,77.255z M448,448H64V256h384V448z"/>
	<rect x="224" width="64" height="96"/>
</g>
<g>
</g>
<g>
</g>
<g>
</g>
<g>
</g>
<g>
</g>
<g>
</g>
<g>
</g>
<g>
</g>
<g>
</g>
<g>
</g>
<g>
</g>
<g>
</g>
<g>
</g>
<g>
</g>
<g>
</g>
</svg>
