<?xml version="1.0" encoding="UTF-8" standalone="no"?>
<svg
   width="128"
   height="128"
   version="1.1"
   id="svg920"
   sodipodi:docname="icon.svg"
   inkscape:version="1.1 (c4e8f9ed74, 2021-05-24)"
   inkscape:export-filename="/home/lalit/Documents/Personal/kanban/images/icon.png"
   inkscape:export-xdpi="96"
   inkscape:export-ydpi="96"
   xmlns:inkscape="http://www.inkscape.org/namespaces/inkscape"
   xmlns:sodipodi="http://sodipodi.sourceforge.net/DTD/sodipodi-0.dtd"
   xmlns="http://www.w3.org/2000/svg"
   xmlns:svg="http://www.w3.org/2000/svg">
  <defs
     id="defs924" />
  <sodipodi:namedview
     id="namedview922"
     pagecolor="#ffffff"
     bordercolor="#666666"
     borderopacity="1.0"
     inkscape:pageshadow="2"
     inkscape:pageopacity="0.0"
     inkscape:pagecheckerboard="0"
     showgrid="false"
     inkscape:zoom="6.46875"
     inkscape:cx="34.628019"
     inkscape:cy="61.217391"
     inkscape:window-width="1920"
     inkscape:window-height="1028"
     inkscape:window-x="0"
     inkscape:window-y="296"
     inkscape:window-maximized="1"
     inkscape:current-layer="g918" />
  <g
     id="g901">
    <title
       id="title898">background</title>
    <rect
       fill="none"
       id="canvas_background"
       height="402"
       width="582"
       y="-1"
       x="-1" />
  </g>
  <g
     id="g918">
    <title
       id="title903">Layer 1</title>
    <ellipse
       id="svg_2"
       fill="#1b93a0"
       cy="64"
       cx="63.873016"
       style="fill:#1b31a0;fill-opacity:1"
       rx="63.000946"
       ry="63" />
    <path
       id="svg_3"
       fill="#157984"
       d="m127,64c0,-3.13 -0.231,-6.205 -0.673,-9.213l-21.835,-21.836l-80.667,62.374l31.007,31.008c2.993,0.437 6.053,0.667 9.168,0.667c34.794,0 63,-28.207 63,-63z"
       style="fill:#151b84;fill-opacity:1" />
    <path
       id="svg_4"
       fill="#004e8e"
       d="m100.002,31.123l-72.003,0c-3.544,0 -6.427,2.883 -6.427,6.428l0,52.898c0,3.545 2.883,6.428 6.427,6.428l72.002,0c3.545,0 6.428,-2.884 6.428,-6.428l0,-52.898c0.001,-3.545 -2.883,-6.428 -6.427,-6.428z"
       style="fill:#006e8e;fill-opacity:1" />
    <path
       id="svg_6"
       fill="#ffffff"
       d="m 75.961525,93.744225 -23.927675,-0.05755 -0.0031,-59.369507 23.948983,0.04331 z M 24.658016,90.449 V 37.551 c 0,-1.772 1.44101,-3.207956 3.214,-3.214 l 22.119871,-0.03224 -10e-6,59.444339 -22.119857,-0.0861 c -1.772,0 -3.214,-1.442 -3.214,-3.214 z m 78.431004,0 c 0,1.771 -1.442,3.214 -3.215004,3.214 l -21.86504,0.05824 -0.02797,-59.360778 21.894016,-0.02345 c 1.771002,-0.0019 3.214002,1.441 3.214002,3.214 z"
       sodipodi:nodetypes="cccccssscccssssccsss" />
    <rect
       id="svg_14"
       fill="#3eb2e5"
       y="40.468811"
       x="81.520844"
       width="17.975561"
       height="13.943913"
       style="stroke-width:1.17247;fill:#3eb2e5;fill-opacity:1" />
    <rect
       id="rect6672"
       fill="#3eb2e5"
       y="40.468811"
       x="54.950874"
       width="17.975561"
       height="13.943913"
       ry="0"
       style="stroke-width:1.17247;fill:#3eb2e5;fill-opacity:1" />
    <rect
       id="rect6674"
       fill="#3eb2e5"
       y="40.468811"
       x="28.262949"
       width="17.975561"
       height="13.943913"
       ry="0"
       style="stroke-width:1.17247;fill:#3eb2e5;fill-opacity:1" />
    <rect
       id="rect7486"
       fill="#3eb2e5"
       y="57.223022"
       x="28.262949"
       width="17.975561"
       height="13.943913"
       ry="0"
       style="stroke-width:1.17247;fill:#3eb2e5;fill-opacity:1" />
    <rect
       id="rect7488"
       fill="#3eb2e5"
       y="73.977242"
       x="81.520844"
       width="17.975561"
       height="13.943913"
       ry="0"
       style="stroke-width:1.17247" />
    <rect
       id="rect7490"
       fill="#3eb2e5"
       y="57.223022"
       x="81.520844"
       width="17.975561"
       height="13.943913"
       ry="0"
       style="stroke-width:1.17247" />
  </g>
</svg>
