<?xml version="1.0" encoding="UTF-8" standalone="no"?>
<svg
   width="128"
   height="128"
   version="1.1"
   id="svg920"
   sodipodi:docname="icon.svg"
   inkscape:version="1.1.1 (3bf5ae0d25, 2021-09-20)"
   inkscape:export-filename="/home/lalit/Documents/Personal/kanban/images/icon.png"
   inkscape:export-xdpi="96"
   inkscape:export-ydpi="96"
   xmlns:inkscape="http://www.inkscape.org/namespaces/inkscape"
   xmlns:sodipodi="http://sodipodi.sourceforge.net/DTD/sodipodi-0.dtd"
   xmlns="http://www.w3.org/2000/svg"
   xmlns:svg="http://www.w3.org/2000/svg">
  <defs
     id="defs924" />
  <sodipodi:namedview
     id="namedview922"
     pagecolor="#ffffff"
     bordercolor="#666666"
     borderopacity="1.0"
     inkscape:pageshadow="2"
     inkscape:pageopacity="0.0"
     inkscape:pagecheckerboard="0"
     showgrid="false"
     inkscape:zoom="6.46875"
     inkscape:cx="38.028986"
     inkscape:cy="66.628019"
     inkscape:window-width="1920"
     inkscape:window-height="1028"
     inkscape:window-x="2560"
     inkscape:window-y="296"
     inkscape:window-maximized="1"
     inkscape:current-layer="g918" />
  <g
     id="g901">
    <title
       id="title898">background</title>
    <rect
       fill="none"
       id="canvas_background"
       height="402"
       width="582"
       y="-1"
       x="-1" />
  </g>
  <g
     id="g918">
    <title
       id="title903">Layer 1</title>
    <ellipse
       id="svg_2"
       fill="#1b93a0"
       cy="64"
       cx="63.873016"
       style="fill:#1b31a0;fill-opacity:1"
       rx="63.000946"
       ry="63"
       inkscape:export-filename="/home/lalit/Documents/Personal/kanban/images/icon.png"
       inkscape:export-xdpi="96"
       inkscape:export-ydpi="96" />
    <path
       id="svg_3"
       style="fill:#000052;fill-opacity:1;stroke-width:1.1282"
       d="M 103.22656 22.855469 L 21.003906 100.74414 L 37.824219 121.35352 A 63.000946 63 0 0 0 63.873047 127 A 63.000946 63 0 0 0 123.57617 83.753906 C 125.25329 76.732695 126.16797 69.312239 126.16797 61.626953 C 126.16797 58.221066 125.97884 54.871749 125.63477 51.580078 A 63.000946 63 0 0 0 125.24219 49.828125 L 103.22656 22.855469 z " />
    <rect
       style="fill:#1b31a0;fill-opacity:1;fill-rule:evenodd"
       id="rect2940"
       width="73.08625"
       height="69.739998"
       x="27.094641"
       y="28.666672" />
    <g
       style="fill:#00cde9;fill-opacity:1"
       id="g669"
       transform="matrix(6.0905208,0,0,5.8116663,14.9136,17.043339)">
      <path
         fill-rule="evenodd"
         clip-rule="evenodd"
         d="m 1.5,1 h 13 L 15,1.5 v 13 L 14.5,15 H 1.5 L 1,14.5 V 1.5 Z M 2,14 H 14 V 2 H 2 Z M 3,3 H 5 V 13 H 3 Z M 9,3 H 7 v 6 h 2 z m 2,0 h 2 v 8 h -2 z"
         id="path660"
         style="fill:#00cde9;fill-opacity:1" />
    </g>
  </g>
</svg>
